<?xml version="1.0" encoding="iso-8859-1"?>
<!-- Generator: Adobe Illustrator 19.0.0, SVG Export Plug-In . SVG Version: 6.00 Build 0)  -->
<svg version="1.1" id="Layer_1" xmlns="http://www.w3.org/2000/svg" xmlns:xlink="http://www.w3.org/1999/xlink" x="0px" y="0px"
	 viewBox="0 0 504 504" style="enable-background:new 0 0 504 504;" xml:space="preserve">
<circle style="fill:#324A5E;" cx="252" cy="252" r="252"/>
<path style="fill:#FFFFFF;" d="M283.2,209.2v-88.4h-62.4v88.4c-41.2,13.2-71.2,52-71.2,97.6c0,56.8,46,102.8,102.8,102.8
	s102.8-46,102.8-102.8C354.8,261.2,324.8,222.4,283.2,209.2z"/>
<g>
	<path style="fill:#F1543F;" d="M178,280c-3.2,8.4-4.8,17.6-4.8,26.8c0,43.6,35.2,78.8,78.8,78.8s78.8-35.2,78.8-78.8
		c0-9.2-1.6-18.4-4.8-26.8H178z"/>
	<path style="fill:#F1543F;" d="M233.2,230.8c4.4-5.2,10-6.4,14.4-4.8c10.4,4,12.8,18.8,4,28c-18.4,19.2-18.4,19.2-18.4,19.2
		s0,0-18.4-19.2c-8.8-9.2-6.4-24,4-28C222.8,224.4,228.8,225.2,233.2,230.8z"/>
	<path style="fill:#F1543F;" d="M262,146c2.8-3.6,7.2-4.4,10-3.2c7.2,2.8,8.8,12.8,2.8,19.6C262,175.6,262,175.6,262,175.6
		s0,0-12.8-13.2c-6.4-6.4-4.4-16.8,2.8-19.6C255.2,141.6,259.2,142.4,262,146z"/>
</g>
<path style="fill:#FFFFFF;" d="M280.8,318.4c3.2-4,8-5.2,11.6-3.6c8,3.2,10,14.8,3.2,22C281.2,352,281.2,352,281.2,352
	s0,0-14.4-15.2c-7.2-7.2-5.2-18.8,3.2-22C272.8,313.2,277.6,314.4,280.8,318.4z"/>
<rect x="209.2" y="94.4" style="fill:#E6E9EE;" width="85.6" height="26.4"/>
<g>
</g>
<g>
</g>
<g>
</g>
<g>
</g>
<g>
</g>
<g>
</g>
<g>
</g>
<g>
</g>
<g>
</g>
<g>
</g>
<g>
</g>
<g>
</g>
<g>
</g>
<g>
</g>
<g>
</g>
</svg>
